HIERARCHY
ROOT Hips
{
	OFFSET 0.000000 0.000000 0.000000
	CHANNELS 6 Xposition Yposition Zposition Xrotation Yrotation Zrotation
	JOINT LeftUpLeg_virtual
	{
		OFFSET 0.000000 0.000000 0.000000
		CHANNELS 3 Xrotation Yrotation Zrotation
		JOINT LeftUpLeg
		{
			OFFSET 11.394100 -6.187798 -0.413800
			CHANNELS 3 Xrotation Yrotation Zrotation
			JOINT LeftLeg
			{
				OFFSET 0.430247 -32.302673 3.732800
				CHANNELS 3 Xrotation Yrotation Zrotation
				JOINT LeftFoot
				{
					OFFSET -0.430247 -48.264931 -6.423300
					CHANNELS 3 Xrotation Yrotation Zrotation
					JOINT LeftToeBase
					{
						OFFSET 4.230900 -16.068199 23.438400
						CHANNELS 3 Xrotation Yrotation Zrotation
						JOINT LeftToe_End
						{
							OFFSET 4.510700 0.695400 19.974600
							CHANNELS 3 Xrotation Yrotation Zrotation
							End Site
							{
								OFFSET 0 0 0
							}
						}
					}
				}
			}
		}
	}
	JOINT RightUpLeg_virtual
	{
		OFFSET 0.000000 0.000000 0.000000
		CHANNELS 3 Xrotation Yrotation Zrotation
		JOINT RightUpLeg
		{
			OFFSET -11.333700 -6.187798 -0.413800
			CHANNELS 3 Xrotation Yrotation Zrotation
			JOINT RightLeg
			{
				OFFSET -0.430392 -32.302628 3.733000
				CHANNELS 3 Xrotation Yrotation Zrotation
				JOINT RightFoot
				{
					OFFSET 0.430392 -48.264973 -6.423500
					CHANNELS 3 Xrotation Yrotation Zrotation
					JOINT RightToeBase
					{
						OFFSET -4.230900 -16.068199 23.438400
						CHANNELS 3 Xrotation Yrotation Zrotation
						JOINT RightToe_End
						{
							OFFSET -4.510700 0.695400 19.974600
							CHANNELS 3 Xrotation Yrotation Zrotation
							End Site
							{
								OFFSET 0 0 0
							}
						}
					}
				}
			}
		}
	}
	JOINT Spine_virtual
	{
		OFFSET 0.000000 0.000000 0.000000
		CHANNELS 3 Xrotation Yrotation Zrotation
		JOINT Spine
		{
			OFFSET -0.002400 12.777504 0.315300
			CHANNELS 3 Xrotation Yrotation Zrotation
			JOINT Spine1
			{
				OFFSET -0.002067 5.816869 0.032633
				CHANNELS 3 Xrotation Yrotation Zrotation
				JOINT Spine1_split
				{
					OFFSET -0.002067 5.816869 0.032633
					CHANNELS 3 Xrotation Yrotation Zrotation
					JOINT Spine2
					{
						OFFSET -0.002067 5.816869 0.032633
						CHANNELS 3 Xrotation Yrotation Zrotation
						JOINT Neck_virtual
						{
							OFFSET 0.000000 0.000000 0.000000
							CHANNELS 3 Xrotation Yrotation Zrotation
							JOINT Neck
							{
								OFFSET -0.003700 21.199493 -0.826900
								CHANNELS 3 Xrotation Yrotation Zrotation
								JOINT Head
								{
									OFFSET 0.000000 20.442200 4.834800
									CHANNELS 3 Xrotation Yrotation Zrotation
									JOINT HeadTop_End
									{
										OFFSET 0.000000 34.668396 4.968400
										CHANNELS 3 Xrotation Yrotation Zrotation
										End Site
										{
											OFFSET 0 0 0
										}
									}
								}
							}
						}
						JOINT LeftShoulder_virtual
						{
							OFFSET 0.000000 0.000000 0.000000
							CHANNELS 3 Xrotation Yrotation Zrotation
							JOINT LeftShoulder
							{
								OFFSET 3.288150 8.794197 -1.372250
								CHANNELS 3 Xrotation Yrotation Zrotation
								JOINT LeftShoulder_split
								{
									OFFSET 3.288150 8.794197 -1.372250
									CHANNELS 3 Xrotation Yrotation Zrotation
									JOINT LeftArm
									{
										OFFSET 11.953299 -2.279007 -0.146200
										CHANNELS 3 Xrotation Yrotation Zrotation
										JOINT LeftForeArm
										{
											OFFSET 18.448900 0.000000 0.000000
											CHANNELS 3 Xrotation Yrotation Zrotation
											JOINT LeftHand
											{
												OFFSET 29.527798 0.000000 0.000000
												CHANNELS 3 Xrotation Yrotation Zrotation
												End Site
												{
													OFFSET 0 0 0
												}
											}
										}
									}
								}
							}
						}
						JOINT RightShoulder_virtual
						{
							OFFSET 0.000000 0.000000 0.000000
							CHANNELS 3 Xrotation Yrotation Zrotation
							JOINT RightShoulder
							{
								OFFSET -3.249400 8.794197 -1.372250
								CHANNELS 3 Xrotation Yrotation Zrotation
								JOINT RightShoulder_split
								{
									OFFSET -3.249400 8.794197 -1.372250
									CHANNELS 3 Xrotation Yrotation Zrotation
									JOINT RightArm
									{
										OFFSET -11.953299 -2.279007 -0.146200
										CHANNELS 3 Xrotation Yrotation Zrotation
										JOINT RightForeArm
										{
											OFFSET -18.448900 0.000000 0.000000
											CHANNELS 3 Xrotation Yrotation Zrotation
											JOINT RightHand
											{
												OFFSET -29.527802 0.000000 0.000000
												CHANNELS 3 Xrotation Yrotation Zrotation
												End Site
												{
													OFFSET 0 0 0
												}
											}
										}
									}
								}
							}
						}
					}
				}
			}
		}
	}
}
MOTION
Frames: 10
Frame Time: 0.03333333
1.879926 80.905136 0.776756 0.000000 0.000000 0.000000 -1.151859 -48.015837 4.126240 -42.990389 6.714283 22.047837 56.484411 -8.382804 -0.258970 -13.474037 -10.101334 -8.496564 -3.227810 -1.067576 0.615308 0.000000 0.000000 0.000000 -2.735091 -47.071796 4.362380 -25.381859 -11.700765 -31.725221 61.784068 -0.314299 -5.854759 -23.829000 -13.075944 28.171773 -1.990585 -0.119571 0.943474 0.000000 0.000000 0.000000 -0.786564 -47.170922 5.017723 8.739125 11.108507 -3.288534 0.792071 4.018126 -1.824478 0.495107 -1.764816 1.228446 0.000000 0.000000 0.000000 2.071860 4.020324 -1.792044 -8.551129 11.795311 4.018670 6.920260 16.626808 1.263504 0.000000 0.000000 0.000000 1.585619 4.060807 -1.344217 0.777418 0.183857 -4.304800 -0.720805 -3.816744 1.481659 5.797751 1.158009 -39.294314 178.291119 -49.279753 178.559436 0.000000 0.000000 0.000000 1.348238 3.652938 -1.637242 1.355556 13.601154 -4.626497 -6.886160 -1.340104 2.311843 -60.034801 21.198230 64.536490 -165.970837 79.381401 164.689494 0.000000 0.000000 0.000000 
2.194816 81.242859 0.883205 0.000000 0.000000 0.000000 -1.043835 -52.829816 3.793015 -38.346420 7.824342 22.412723 55.539417 -7.756779 -1.636271 -17.473255 -6.176369 -7.957320 -3.737053 -1.157952 1.089717 0.000000 0.000000 0.000000 -2.521146 -51.557130 4.178246 -29.879714 -6.064048 -31.379426 63.506074 0.998103 -6.649016 -22.472919 -10.837095 27.953085 -1.162857 0.073009 0.824744 0.000000 0.000000 0.000000 -0.230476 -51.108386 5.109011 9.019578 10.650120 -2.462190 1.069527 3.895986 -1.758486 0.504587 -1.645167 1.083779 0.000000 0.000000 0.000000 2.387737 3.931495 -1.681987 -8.666331 12.943893 3.663851 5.963398 19.655973 -0.538677 0.000000 0.000000 0.000000 1.586800 3.976914 -1.258077 1.002774 0.714940 -2.412736 -0.091876 -4.297967 0.602035 1.904360 5.622991 -34.257275 178.680522 -53.935415 178.831155 0.000000 0.000000 0.000000 1.342300 3.558887 -1.484305 1.104384 11.119808 -2.574750 -6.225968 -1.500089 2.461814 -61.103487 23.823386 69.849865 -172.129250 75.007635 170.750440 0.000000 0.000000 0.000000 
2.430348 81.400627 0.818245 0.000000 0.000000 0.000000 -1.012575 -57.672567 2.980550 -34.446321 7.815624 22.681330 55.725417 -7.070545 -2.298788 -21.523258 -2.499321 -7.275987 -3.883562 -1.180553 1.083469 0.000000 0.000000 0.000000 -2.424988 -55.775858 3.437526 -33.358190 -1.583033 -30.345332 63.431974 2.154426 -7.252548 -20.984539 -8.696435 27.777560 -0.732352 0.365069 0.604591 0.000000 0.000000 0.000000 0.492498 -54.712431 4.720599 9.216492 9.710798 -1.817212 1.345969 3.332829 -1.690670 0.793054 -1.567366 0.937484 0.000000 0.000000 0.000000 2.669556 3.295143 -1.534131 -8.749478 14.378282 3.326632 5.316546 22.785289 -2.532024 0.000000 0.000000 0.000000 1.669678 3.349252 -1.208280 1.134424 1.091618 -0.156517 -0.153035 -2.903965 -0.206864 -6.626479 6.137113 -26.692007 178.583656 -66.266140 178.812126 0.000000 0.000000 0.000000 1.444507 2.982384 -1.442688 0.897852 9.534241 -0.892672 -5.741846 -2.228743 2.332400 -61.564429 26.483816 74.300376 -175.988416 71.017561 174.380303 0.000000 0.000000 0.000000 
2.562345 81.445755 0.516338 0.000000 0.000000 0.000000 -1.378937 -61.239756 1.624573 -32.301051 6.457088 22.984466 57.162458 -6.878205 -1.999166 -24.499484 0.216886 -7.238178 -3.444913 -1.099222 0.604467 0.000000 0.000000 0.000000 -2.742217 -58.806713 2.038441 -34.979294 0.903328 -29.041537 61.790829 2.836772 -7.508622 -19.884772 -7.129570 27.490682 -0.811165 0.700039 0.466960 0.000000 0.000000 0.000000 0.929487 -57.270501 3.756877 9.308395 8.253128 -1.359224 1.520796 2.324146 -1.665679 1.149336 -1.339705 0.703177 0.000000 0.000000 0.000000 2.785542 2.121166 -1.473367 -8.649200 15.914412 3.107850 5.452340 25.700494 -4.574185 0.000000 0.000000 0.000000 1.996460 2.164452 -1.277703 1.213327 1.186170 1.968387 -1.117746 -0.180653 -0.829328 -17.436559 1.743794 -19.231272 171.819952 -85.993564 172.155505 0.000000 0.000000 0.000000 1.632068 1.895508 -1.536700 0.761831 8.838191 0.379708 -5.890099 -2.975861 1.812902 -59.885412 29.242113 77.421704 -178.458158 67.069753 176.509696 0.000000 0.000000 0.000000 
2.569266 81.404526 0.144382 0.000000 0.000000 0.000000 -2.113974 -62.517732 -0.130105 -32.252922 4.267316 23.228481 59.330766 -7.249804 -0.829185 -25.425222 1.559199 -8.349961 -3.024802 -0.899720 -0.012611 0.000000 0.000000 0.000000 -3.380358 -60.040757 0.243969 -34.396037 1.050481 -27.902329 59.319701 2.818724 -7.430330 -19.574019 -6.495016 27.045210 -1.350264 0.998029 0.498069 0.000000 0.000000 0.000000 1.049996 -58.424653 2.454615 9.249895 6.483414 -1.118859 1.585119 1.106205 -1.743743 1.222558 -1.144558 0.235921 0.000000 0.000000 0.000000 2.707628 0.719063 -1.573770 -8.457502 17.199828 3.039355 6.237452 27.913552 -6.275844 0.000000 0.000000 0.000000 2.529506 0.690054 -1.436739 1.251569 1.172371 3.431940 -2.646408 2.534367 -1.056359 -26.564228 -5.647112 -15.008229 2.826043 -72.473409 3.054047 0.000000 0.000000 0.000000 1.931882 0.575627 -1.764347 0.747609 9.155262 1.154442 -6.692637 -3.072278 1.565937 -55.051796 32.129254 78.205167 -179.527383 62.646878 177.257274 0.000000 0.000000 0.000000 
2.488772 81.294456 -0.118183 0.000000 0.000000 0.000000 -2.554637 -61.279385 -1.522937 -34.132856 2.052584 23.145518 61.433351 -7.763769 0.785819 -24.441325 1.535872 -10.099719 -3.159659 -0.662878 -0.436053 0.000000 0.000000 0.000000 -3.994529 -59.106306 -1.377753 -31.843305 -0.887126 -27.156697 56.862312 2.118188 -7.139236 -20.327551 -6.915366 26.607150 -1.839311 1.223373 0.618461 0.000000 0.000000 0.000000 0.851593 -57.705147 1.219455 9.115089 4.802101 -1.108881 1.578473 0.095951 -1.923774 1.003873 -0.677426 -0.084531 0.000000 0.000000 0.000000 2.436834 -0.453832 -1.808470 -8.285194 17.815842 3.084664 7.282048 28.607020 -7.105456 0.000000 0.000000 0.000000 3.139108 -0.614727 -1.643612 1.202874 1.412817 4.149949 -4.377327 3.934679 -1.768330 -32.347530 -12.790553 -15.611618 2.459319 -58.115621 2.347634 0.000000 0.000000 0.000000 2.301852 -0.577668 -2.075896 0.871834 10.518712 1.122733 -7.536405 -2.904940 1.966498 -46.912543 34.741925 75.721376 -179.662143 57.454329 177.163359 0.000000 0.000000 0.000000 
2.289315 81.097862 -0.210068 0.000000 0.000000 0.000000 -2.454838 -57.839859 -2.064704 -37.517310 0.462428 22.535309 62.965096 -7.886455 2.354957 -22.273042 0.228975 -11.411124 -3.991383 -0.436763 -0.441192 0.000000 0.000000 0.000000 -3.954854 -56.024616 -2.083444 -27.993908 -4.423591 -26.724775 55.043187 0.935150 -6.765045 -22.164488 -8.223514 26.320296 -1.966966 1.391704 0.652630 0.000000 0.000000 0.000000 0.483665 -55.159231 0.389180 9.065098 3.660139 -1.369123 1.585695 -0.349690 -2.140589 0.872221 -0.088871 -0.191500 0.000000 0.000000 0.000000 2.105303 -0.975931 -2.114758 -8.349531 17.479682 3.109123 8.171036 27.350229 -6.667469 0.000000 0.000000 0.000000 3.591739 -1.215402 -1.828976 0.988262 1.963121 3.865797 -4.655934 3.814256 -2.767677 -34.407423 -17.558446 -20.654787 3.148880 -55.850167 2.575942 0.000000 0.000000 0.000000 2.643692 -1.123579 -2.348984 1.175710 12.702677 0.357442 -8.175860 -2.505969 2.981666 -37.052800 35.882313 69.601636 -179.202703 52.364526 176.794515 0.000000 0.000000 0.000000 
2.047997 80.711334 0.050892 0.000000 0.000000 0.000000 -1.793740 -53.243886 -1.723044 -42.014078 -0.149309 21.551608 63.921049 -7.417433 3.550566 -19.414739 -1.955669 -11.675017 -4.659590 -0.238239 -0.269899 0.000000 0.000000 0.000000 -3.265949 -51.375436 -1.804079 -23.722912 -8.913404 -26.497690 54.113502 -0.365134 -6.410110 -24.703252 -10.084126 26.340051 -1.764636 1.521139 0.429073 0.000000 0.000000 0.000000 0.245501 -51.118809 0.198751 9.160549 3.448144 -1.903599 1.667006 0.043453 -2.334277 0.890978 -0.002254 -0.037391 0.000000 0.000000 0.000000 1.912294 -0.594908 -2.336055 -8.780455 16.119103 2.993025 8.522303 23.857769 -4.900155 0.000000 0.000000 0.000000 3.702578 -0.804268 -1.930008 0.628127 2.620956 2.798488 -3.947429 2.300902 -3.905549 -32.173415 -19.684204 -28.366334 4.229431 -65.158953 3.495948 0.000000 0.000000 0.000000 2.928596 -0.764146 -2.516317 1.652076 15.550208 -1.337584 -8.192526 -2.036383 4.093589 -28.547476 34.439467 60.897393 -178.524206 49.629893 176.558901 0.000000 0.000000 0.000000 
1.809656 80.184700 0.567093 0.000000 0.000000 0.000000 -0.877541 -48.281436 -0.715152 -47.189135 0.135855 20.482040 64.654461 -6.534940 4.336272 -16.254221 -4.584361 -10.802316 -4.458781 -0.111545 -0.150816 0.000000 0.000000 0.000000 -2.341304 -46.030270 -0.850515 -19.662682 -13.673968 -26.329051 53.804163 -1.551285 -6.073455 -27.388557 -12.157494 26.625150 -1.218652 1.621855 -0.031623 0.000000 0.000000 0.000000 0.064984 -46.192774 0.519770 9.443281 4.385451 -2.653018 1.813268 1.255708 -2.404795 0.911137 -0.061893 0.513561 0.000000 0.000000 0.000000 1.881668 0.640212 -2.387210 -9.620062 13.948001 2.656614 8.458490 18.366973 -2.216662 0.000000 0.000000 0.000000 3.442735 0.575802 -1.946121 0.260341 3.014411 1.292119 -2.178057 0.142917 -4.460120 -26.457313 -20.626379 -37.084522 8.075536 -80.439575 7.597593 0.000000 0.000000 0.000000 3.085833 0.491368 -2.525177 2.267149 18.665787 -3.745234 -7.664115 -1.576936 4.695233 -24.587136 30.723844 51.664213 -177.646322 51.812797 176.367492 0.000000 0.000000 0.000000 
1.616719 79.551727 1.027634 0.000000 0.000000 0.000000 -0.020614 -43.647211 0.550807 -52.189831 0.835751 19.431617 65.198944 -5.663225 4.962163 -13.023448 -7.368216 -9.391823 -3.888706 -0.062595 0.157260 0.000000 0.000000 0.000000 -1.494008 -40.881165 0.364638 -16.299847 -18.113797 -26.189805 53.635601 -2.438283 -5.751669 -29.468875 -14.040802 27.123906 -0.819240 1.675144 -0.610722 0.000000 0.000000 0.000000 0.055703 -41.345225 1.125175 9.869722 6.360795 -3.529065 2.020612 3.042638 -2.355764 1.000235 -0.301787 0.937009 0.000000 0.000000 0.000000 2.016403 2.459349 -2.270808 -10.783208 11.291438 2.103029 8.293369 11.755579 0.724745 0.000000 0.000000 0.000000 2.919006 2.618027 -1.889965 0.003623 2.536170 -0.532741 0.190257 -2.003033 -3.381867 -17.353398 -21.750461 -44.675499 170.054676 -85.951941 170.305549 0.000000 0.000000 0.000000 3.146729 2.434500 -2.377967 2.947616 21.670899 -6.322972 -6.997747 -0.789124 4.281960 -26.388018 26.272218 43.363013 -176.192325 61.320571 175.757856 0.000000 0.000000 0.000000 
